# xmcd
#
# Track frame offsets:
#	150
#	39500
#	68582
#	94486
#	158664
#	200157
#
# Disc length: 3307 seconds
#
# Revision: 0
# Processed by: cddbd v1.5.2PL0 Copyright (c) Steve Scherf et al.
# Submitted via: audiograbber 1.83.01
#
DISCID=4d0ce906
DTITLE=Grateful Dead - 82-04-02 Cameron Indoor Stadium, Duke Uni, Durham NC
DYEAR=1900
DGENRE=
TTITLE0=Samson and Delilah
TTITLE1=It Must Have Been The Roses
TTITLE2=Men Smart, Women Smarter
TTITLE3=He's Gone
TTITLE4=Truckin'
TTITLE5=Drums
EXTD=
EXTT0=
EXTT1=
EXTT2=
EXTT3=
EXTT4=
EXTT5=
PLAYORDER=
